PathFileType	4	(X/Y/Z)	./resultDataOpenSim/trcMotMarkerGrf/sub10/qtm-01-02.trc
DataRate	CameraRate	NumFrames	NumMarkers	Units	OrigDataRate	OrigDataStartFrame	OrigNumFrames
250.000000	250.000000	8	24	m	250.000000	341	454
Frame#	Time	L.Toe.Tip			R.Toe.Tip			L.Ankle.Lat			R.Ankle.Lat			L.Ankle.Med			R.Ankle.Med			L.Heel			R.Heel			L.Knee.Lat			R.Knee.Lat			L.Knee.Med			R.Knee.Med			L.Thigh.Upper			R.Thigh.Upper			L.ASIS			R.ASIS			V.Sacral			L.Acromium			R.Acromium			C7			L.Elbow			R.Elbow			L.Wrist.Lat			R.Wrist.Lat
		X1	Y1	Z1	X2	Y2	Z2	X3	Y3	Z3	X4	Y4	Z4	X5	Y5	Z5	X6	Y6	Z6	X7	Y7	Z7	X8	Y8	Z8	X9	Y9	Z9	X10	Y10	Z10	X11	Y11	Z11	X12	Y12	Z12	X13	Y13	Z13	X14	Y14	Z14	X15	Y15	Z15	X16	Y16	Z16	X17	Y17	Z17	X18	Y18	Z18	X19	Y19	Z19	X20	Y20	Z20	X21	Y21	Z21	X22	Y22	Z22	X23	Y23	Z23	X24	Y24	Z24

341	1.36	0.7319555	0.067663647	-0.096694787	0.94373829	0.038697083	0.046108136	0.6529489	0.17937477	-0.10955916	0.80331238	0.058207608	0.096065495	0.68727393	0.18435102	-0.031435027	0.81761975	0.085341751	0.011249425	0.59077687	0.19575245	-0.055407054	0.74840114	0.035941663	0.053914093	0.89209814	0.4700071	-0.14172697	0.88049374	0.45411919	0.13190356	0.93939961	0.42799747	-0.03538506	0.86787959	0.46055268	0.0037874644	0.84237436	0.83917658	-0.18910407	0.88982171	0.87247525	0.18704661	0.90781795	0.95595764	-0.13865115	0.95059809	0.96276914	0.10437738	0.72957478	0.97557752	0.012819421	0.83456279	1.4371684	-0.15477517	0.83447029	1.4267173	0.17073101	0.74959452	1.4539195	0.0034011268	0.81563652	1.0891468	-0.19054149	0.72425297	1.0960629	0.19661365	0.99615591	0.92294147	-0.19383453	0.80677807	0.87548998	0.26169994
342	1.364	0.75245845	0.066412553	-0.097887089	0.94388055	0.038699902	0.046185456	0.67008514	0.17556085	-0.11007277	0.80358524	0.058633744	0.095968704	0.7050591	0.18115992	-0.032226208	0.81807395	0.085886287	0.011295683	0.60733902	0.19000325	-0.05584319	0.74825831	0.036351694	0.053832835	0.90393375	0.47197378	-0.14173676	0.8808065	0.45446946	0.13281712	0.95141693	0.43018978	-0.035608495	0.86904817	0.46088107	0.004566254	0.85054739	0.84054106	-0.18985622	0.89453587	0.872681	0.18679719	0.91504319	0.95741611	-0.13814154	0.95622132	0.96318271	0.10474584	0.73576832	0.97667649	0.011577085	0.84061328	1.4381299	-0.15510568	0.84065657	1.4276056	0.17032331	0.75591135	1.4545969	0.0033445592	0.81926877	1.0902714	-0.19082138	0.73319665	1.0956134	0.19814078	0.99778524	0.92199841	-0.1955368	0.82050466	0.87649432	0.26175512
343	1.368	0.77301604	0.065223207	-0.099086461	0.94401644	0.038705762	0.046265025	0.68741352	0.17163386	-0.11059823	0.80380428	0.059092889	0.095860244	0.72271422	0.17789219	-0.032906544	0.81859743	0.086448326	0.011279938	0.6241121	0.18410976	-0.056282692	0.74830757	0.036826032	0.053609992	0.91519549	0.47410366	-0.14145227	0.88102359	0.45487041	0.13365475	0.9636222	0.43233283	-0.035923443	0.87016572	0.46121132	0.0052805024	0.85870773	0.84183117	-0.19041534	0.89929751	0.87284223	0.1865409	0.92246237	0.95872728	-0.13760731	0.96181996	0.96354096	0.10512126	0.74210579	0.97759818	0.010373338	0.84670548	1.4389896	-0.15543328	0.84684147	1.4283926	0.16991378	0.76223397	1.4551981	0.0032852635	0.82290074	1.0913127	-0.19111979	0.74206876	1.0951026	0.19956283	0.99951118	0.92102459	-0.19724145	0.83420865	0.87751212	0.26177196
344	1.372	0.7936558	0.064088084	-0.1003021	0.94413384	0.038710726	0.046339967	0.70491364	0.16760429	-0.11113018	0.80393369	0.05958522	0.095736447	0.74026586	0.17454874	-0.033482412	0.81913639	0.087024451	0.011224553	0.64113367	0.17810279	-0.056779737	0.74857805	0.037392448	0.053191057	0.92603096	0.47627103	-0.14104019	0.88105273	0.45530326	0.13436051	0.97607317	0.43441823	-0.036325186	0.87140137	0.4615288	0.0060108835	0.86681207	0.84307529	-0.190861	0.90413698	0.87298657	0.18630769	0.92988223	0.95988832	-0.13705225	0.96740937	0.96384016	0.1054956	0.7484221	0.97832	0.0091506147	0.85283258	1.4397531	-0.15576038	0.85302607	1.4290795	0.16950237	0.76857445	1.4557485	0.0031352238	0.82654658	1.0922624	-0.19144618	0.7508867	1.0945786	0.20090576	1.0012534	0.92001646	-0.19897671	0.84793808	0.8785574	0.26176367
345	1.376	0.8144002	0.062990708	-0.10154144	0.94422596	0.038709153	0.046403653	0.72254658	0.1634943	-0.11164386	0.80399574	0.060102568	0.09559055	0.7578405	0.17113412	-0.033999556	0.81964738	0.087617395	0.011147902	0.65843363	0.17201499	-0.057361402	0.74902388	0.038076142	0.052604629	0.93673579	0.47829315	-0.14073333	0.8809169	0.45575845	0.13493533	0.98849204	0.43643538	-0.036719764	0.87277194	0.46183099	0.0067217293	0.87482413	0.84427979	-0.1914428	0.90902673	0.87311578	0.18608536	0.93709812	0.96090441	-0.13648372	0.97299698	0.96407876	0.10586895	0.75471575	0.97886036	0.0078896042	0.85899453	1.4404221	-0.15609378	0.85921449	1.4296667	0.16909348	0.77492613	1.4562419	0.0028720967	0.83020631	1.0931175	-0.19180457	0.75975954	1.0940625	0.20223974	1.0029703	0.91897276	-0.20074959	0.86174826	0.87964961	0.26174815
346	1.38	0.83524338	0.061921527	-0.10280541	0.94429318	0.038697318	0.046456074	0.74030168	0.1593375	-0.11212314	0.80403543	0.060636407	0.095422289	0.7754807	0.16766522	-0.034469147	0.82009117	0.088229806	0.011070595	0.67603136	0.16584995	-0.058003462	0.74953962	0.038893137	0.051978029	0.94742627	0.48010105	-0.14058996	0.88084335	0.4562415	0.13545619	1.0005093	0.43837186	-0.037009728	0.87416205	0.46212675	0.0073015687	0.88275991	0.84543812	-0.19223739	0.91391171	0.87321854	0.18584395	0.94412693	0.96177438	-0.13591064	0.97857871	0.96425792	0.10624147	0.76106262	0.97925494	0.0066329137	0.8651931	1.4409903	-0.15643887	0.8654077	1.4301553	0.16869306	0.78127298	1.4566544	0.0025330285	0.83386531	1.0938865	-0.19218748	0.76879073	1.0935165	0.20362663	1.0046534	0.91789352	-0.20255351	0.87565118	0.88079845	0.26173541
347	1.384	0.85617118	0.060874485	-0.10409935	0.94434812	0.038677716	0.046502468	0.75820361	0.15515233	-0.11257871	0.80407716	0.061188617	0.09524028	0.79311479	0.16416713	-0.034853732	0.82044895	0.088857678	0.011013243	0.69396117	0.15957777	-0.058636242	0.75004436	0.039792634	0.051482492	0.95797748	0.48177607	-0.14046789	0.88108261	0.45676266	0.13600917	1.0120342	0.44021902	-0.037186075	0.87556686	0.46241943	0.007746412	0.89076492	0.8465026	-0.19294015	0.91875619	0.87329773	0.18557587	0.95124903	0.96248927	-0.13534154	0.98414288	0.96438318	0.10661255	0.76750487	0.97957186	0.0054193243	0.87142433	1.4414479	-0.15679246	0.87160046	1.4305447	0.1683048	0.78761332	1.4569736	0.0021652552	0.83751024	1.0945806	-0.19258053	0.77798963	1.092881	0.20506672	1.0063151	0.9167769	-0.20438008	0.88962427	0.88200112	0.26172398
348	1.388	0.87720162	0.059848334	-0.10543636	0.94442644	0.038657316	0.046539684	0.77627424	0.15092852	-0.11302939	0.80412451	0.061756932	0.095052201	0.810688	0.16065599	-0.035132202	0.82076554	0.089487079	0.010979634	0.71227505	0.15317018	-0.059143806	0.75056149	0.040638107	0.051246213	0.96837159	0.48336251	-0.14030309	0.88168061	0.45732148	0.13660747	1.023216	0.4419721	-0.03729758	0.87714937	0.46269997	0.0081812322	0.89904228	0.84737473	-0.19308282	0.92355157	0.8733714	0.18530393	0.95874979	0.96304698	-0.13478095	0.98967881	0.96446009	0.1069879	0.77401222	0.97989356	0.0042233824	0.87768412	1.4417893	-0.1571441	0.87778553	1.4308351	0.16793086	0.79396341	1.4572067	0.0017982139	0.84114159	1.0952016	-0.19297459	0.78726001	1.092129	0.20650649	1.0079691	0.91561893	-0.20622483	0.90363787	0.8832483	0.26170611
